<svg viewBox="0 43 158.75 195.12" xmlns="http://www.w3.org/2000/svg" xmlns:xlink="http://www.w3.org/1999/xlink">
 <g transform="matrix(.34346 0 0 .34346 -6.9626 48.69)">
  <path d="m460.14 300.14h-231.74v-300.14h231.74c6.827 0 11.071 7.418 7.608 13.303l-80.449 136.77 80.45 136.77c3.462 5.884-0.78 13.303-7.608 13.303z" fill="#e6e6e6"/>
  <path d="m299.02 344.28h-194.21c-4.875 0-8.828-3.953-8.828-8.828v-282.48c0-4.875 3.953-8.828 8.828-8.828h203.03v291.31c0 4.875-3.952 8.828-8.827 8.828z" fill="#f9f9f9"/>
  <polygon points="228.4 0 307.85 44.138 228.4 44.138" fill="#ccc"/>
  <path d="m69.504 26.483h-8.828c-4.875 0-8.828 3.953-8.828 8.828v467.86c0 4.875 3.953 8.828 8.828 8.828h8.828c4.875 0 8.828-3.953 8.828-8.828v-467.86c-1e-3 -4.875-3.953-8.827-8.828-8.827z" fill="#d2aa82"/>
  <g fill="#784421">
   <path d="m51.848 79.448h44.138v-17.655h-44.138c-4.875 0-8.828 3.953-8.828 8.828 1e-3 4.875 3.952 8.827 8.828 8.827z"/>
   <path d="m51.848 326.62h44.138v-17.655h-44.138c-4.875 0-8.828 3.953-8.828 8.828 1e-3 4.874 3.952 8.827 8.828 8.827z"/>
  </g>
  <path d="m78.331 44.138h-26.483v-8.828c0-4.875 3.953-8.828 8.828-8.828h8.828c4.875 0 8.828 3.953 8.828 8.828v8.828z" fill="#be876b"/>
 </g>
</svg>
