<svg viewBox="0 43 158.75 195.12" xmlns="http://www.w3.org/2000/svg" xmlns:xlink="http://www.w3.org/1999/xlink">
 <g transform="matrix(1.1467 0 0 1.1467 -203.87 -45.745)">
  <path d="m223.52 176.53 24.323 22.299c0.26855 0.26856-0.89641 7.0308-0.59478 7.2414 2.4498 1.7103 5.8491 1.4708 8.0386-0.71887 2.458-2.4577 2.458-6.4439 0-8.9022 2.458 2.458 6.4442 2.458 8.9022 0 2.4164-2.4167 2.4535-6.3161 0.10715-8.782 2.4662 2.3463 6.3659 2.3093 8.7863-0.11165 2.417-2.4167 2.4537-6.3161 0.10742-8.7823 2.4662 2.3424 6.3659 2.3096 8.7865-0.11139 2.4577-2.458 2.4577-6.4402 0-8.8979l-19.923-19.834-12.273-7.4647 9.5091-6.1344-32.808-13.219-25.219 25.215 13.132 20.797 9.1255 7.4068z" fill="#ffc83d"/>
  <g transform="matrix(.26458 0 0 .26458 181.48 87.137)" fill="#886ce4">
   <path d="m495.39 149.07-85.416-81.921c-70.185 74.527-146.5 77.306-212.45 143.26-9.337 9.337-9.337 24.466 0 33.802 9.336 9.337 24.465 9.337 33.802 0 28.907-28.157 40.053-27.027 73.177-6.885l75.301 74.964c40.761-52.838 78.033-108.1 115.58-163.22z"/>
   <path d="m137.4 296.81-11.726 11.726c-9.289 9.289-9.289 24.355 0 33.63 9.29 9.289 24.356 9.289 33.63 0.016l11.741-11.741c9.289-9.289 9.289-24.34 0-33.63s-24.356-9.29-33.645-1e-3z"/>
   <path d="m171.05 330.44-11.741 11.741c-9.273 9.273-9.289 24.34 0 33.63 9.29 9.29 24.356 9.29 33.646 0l11.726-11.726c9.29-9.289 9.29-24.355 0-33.646-9.291-9.289-24.342-9.289-33.631 1e-3z"/>
   <path d="m204.68 364.09-11.726 11.726c-9.289 9.29-9.289 24.355 0 33.63 9.29 9.29 24.341 9.29 33.63 0l11.741-11.726c9.29-9.289 9.274-24.34 0-33.63-9.289-9.289-24.355-9.289-33.645 0z"/>
   <path d="m238.32 397.72-11.741 11.726c-9.289 9.29-9.289 24.356 0 33.646 9.29 9.29 24.356 9.29 33.646 0l11.725-11.725c9.289-9.29 9.289-24.356 0-33.646s-24.34-9.29-33.63-1e-3z"/>
  </g>
  <rect transform="rotate(225)" x="-247.2" y="32.822" width="23.362" height="45.842" fill="#13a10e"/>
  <path d="m197.14 135.93c-1.1028 1.103-1.1028 2.8874 0 3.9904 1.0988 1.0988 2.8877 1.0988 3.9862 0 1.103-1.103 1.103-2.8874 0-3.9904-1.0986-1.0988-2.8874-1.0988-3.9862 0z" fill="#ceff3d"/>
 </g>
</svg>
